<?xml version="1.0" encoding="utf-8"?>
<!-- Generator: Adobe Illustrator 21.1.0, SVG Export Plug-In . SVG Version: 6.00 Build 0)  -->
<svg version="1.0" id="Capa_1" xmlns="http://www.w3.org/2000/svg" xmlns:xlink="http://www.w3.org/1999/xlink" x="0px" y="0px"
	 viewBox="0 0 529 600" enable-background="new 0 0 529 600" xml:space="preserve">
<circle opacity="0.25" fill="#535461" enable-background="new    " cx="11.6" cy="109.3" r="3.3"/>
<polygon opacity="0.25" fill="#535461" enable-background="new    " points="415.4,355.1 412.5,355.1 412.5,352.2 411.3,352.2 
	411.3,355.1 408.4,355.1 408.4,356.3 411.3,356.3 411.3,359.2 412.5,359.2 412.5,356.3 415.4,356.3 "/>
<polygon opacity="0.25" fill="#535461" enable-background="new    " points="40,20.6 37.1,20.6 37.1,17.7 36,17.7 36,20.6 33,20.6 
	33,21.7 36,21.7 36,24.6 37.1,24.6 37.1,21.7 40,21.7 "/>
<g id="cce41613-5798-418e-bd1c-d8ab89d50e24_2_">
	
		<linearGradient id="SVGID_1_" gradientUnits="userSpaceOnUse" x1="158.9729" y1="130.6059" x2="158.9729" y2="317.7389" gradientTransform="matrix(1 0 0 -1 0 608)">
		<stop  offset="0" style="stop-color:#808080;stop-opacity:0.25"/>
		<stop  offset="0.54" style="stop-color:#808080;stop-opacity:0.12"/>
		<stop  offset="1" style="stop-color:#808080;stop-opacity:0.1"/>
	</linearGradient>
	<path fill="url(#SVGID_1_)" d="M112.8,290.3h92.4c5,0,9.1,4.1,9.1,9.1v169c0,5-4.1,9.1-9.1,9.1h-92.4c-5,0-9.1-4.1-9.1-9.1v-169
		C103.7,294.3,107.8,290.3,112.8,290.3z"/>
</g>
<path id="_x33_cc1ef72-f286-4cd9-bc37-3a4bc0282736_2_" fill="#00C6A3" d="M116,294.2h86.8c5,0,9.1,4.1,9.1,9.1v160.2
	c0,5-4.1,9.1-9.1,9.1H116c-5,0-9.1-4.1-9.1-9.1V303.3C106.9,298.3,110.9,294.2,116,294.2z"/>
<polyline id="_x33_aab063b-c154-4fae-90f4-bd3dbd8a15cc_2_" fill="none" points="106.9,535.7 153.2,535.7 141.8,582.3 "/>
<g id="_x31_a4f509f-11ed-42f2-baf8-98baf11ce138_2_">
	<polygon fill="#E0E0E0" points="191.1,337.1 131.2,338.3 114.6,319.2 203.9,317.6 	"/>
</g>
<g id="_x32_9eb97ed-3d6d-42b6-a356-b039b63b46ac_2_">
	<polygon fill="#E0E0E0" points="203.9,319.1 114.6,319.1 132.4,309.6 184.9,307.8 	"/>
</g>
<linearGradient id="SVGID_2_" gradientUnits="userSpaceOnUse" x1="409.442" y1="-49.0679" x2="409.442" y2="219.3314" gradientTransform="matrix(1 0 0 -1 -250.44 531.48)">
	<stop  offset="0" style="stop-color:#808080;stop-opacity:0.25"/>
	<stop  offset="0.54" style="stop-color:#808080;stop-opacity:0.12"/>
	<stop  offset="1" style="stop-color:#808080;stop-opacity:0.1"/>
</linearGradient>
<path fill="url(#SVGID_2_)" d="M269.9,344.4c-8.4-3.7-19.8,1.4-22.2,10c-6.4-18.1-21.7-32.8-40.2-39.5c-3.1-1.1-11.5-4.5-13.9-1.8
	c-1.1,1.2-3.2,6-3.1,10h-62.8c0-0.8,0-1.6,0-2.3c0-9.1-7.3-9.4-16.2-7.3c-7.7,2-14.8,5.8-20.7,11.1c-9.4,8.3-16,19.2-22.4,29.9
	l-11.2-11.1c-1.2-1.2-2.7-2.5-4.5-2.5c-1.9,0.1-3.2,1.7-4.3,3.2c-4.9,6.7-10,13.6-11.2,21.7c-1.2,8,1.6,15.9,4.3,23.5
	c2.7,7.4,6.2,17.9,13.9,20.6c8.3,2.9,17,3.2,24.1-1.7c11.2-7.7,22.7-15.6,30.9-26.1V462h0.9l-7.7,118.6l51.4-0.3l3.7-118.3h1.5
	l2.5,118.3l52.3,0.3L207.3,462h1.6v-80.7l1.4,1.2l25.4,21.2c5.3,4.4,11.3,9.1,18.3,8.7c5-0.3,9.6-8.7,12.8-12.4
	c3.2-3.7,5.3-8.2,7.3-12.6c3.4-7.3,6.8-14.9,7-22.9C281.2,356.5,277.5,347.8,269.9,344.4z"/>
<path fill="#FFFFFF" d="M265.1,346.3c-8.1-3.7-18.9,1.4-21.2,10c-6.1-18-20.8-32.6-38.4-39.2c-2.9-1.1-10-4.4-12.2-1.8
	c-1,1.2-1,6-0.8,9.9H126c0-0.8,0-1.6,0-2.3c0-9.1-3.9-9.4-12.4-7.3c-7.4,1.8-14.2,5.9-19.8,11c-9,8.3-15.3,19-21.4,29.6l-10.7-11
	c-1.2-1.2-2.6-2.5-4.3-2.4c-1.7,0.1-3.1,1.7-4.1,3.2c-4.7,6.6-9.6,13.5-10.7,21.6c-1.1,7.9,1.5,15.8,4.2,23.4
	c2.6,7.4,6,15.6,13.3,18.3c7.9,2.8,16.2-2.3,23.1-7.1c10.7-7.6,21.7-15.5,29.5-25.9v86.8h0.9l-7.3,117.7h47.1l5.6-117.7h1.4
	l4.3,117.7h48l-7.5-117.7h1.6v-85.5l1.3,1.2l24.3,21c5,4.4,10.8,9,17.5,8.7c4.8-0.3,9.1-3.2,12.2-6.9c3.1-3.7,5-8.1,7-12.5
	c3.2-7.3,6.5-14.8,6.7-22.7S272.3,349.6,265.1,346.3z"/>
<path id="_x30_c32cf8a-9850-40d7-b2dc-353b7a6759c6_2_" fill="#00C6A3" d="M60.7,311.9c-3.1-1-6.7,0.6-8.7,3.3
	c-1.9,2.7-2.5,6.1-2.5,9.4c0,2,0.1,4.1-1.1,5.7c-1.1,1.3-2.7,2-4.4,2c-1.7,0-3.3-0.1-5-0.4c-3-0.3-6.3,0.1-8.4,2.2s-2.4,6.2,0.2,7.8
	c-3,2.6-2.9,7.9,0.2,10.4c-2.1,2.1-2.2,5.5-0.1,7.6c0.8,0.9,1.9,1.4,3.1,1.6c-2.6,1-3.6,4.8-1.7,6.9c1.1,1.2,2.8,1.7,4.4,2.1
	c3.5,0.9,7,1.7,10.6,2.5c3.1,0.7,6.5,1.3,9.5,0.3c8.1-2.7,4.9-12.8,4.4-18.9c-0.8-9.1-1.1-18.2-1.1-27.3
	C60.2,325.7,61.1,312.1,60.7,311.9z"/>
<linearGradient id="SVGID_3_" gradientUnits="userSpaceOnUse" x1="409.9754" y1="208.3623" x2="409.9754" y2="301.3768" gradientTransform="matrix(1 0 0 -1 -250.44 531.48)">
	<stop  offset="0" style="stop-color:#808080;stop-opacity:0.25"/>
	<stop  offset="0.54" style="stop-color:#808080;stop-opacity:0.12"/>
	<stop  offset="1" style="stop-color:#808080;stop-opacity:0.1"/>
</linearGradient>
<path fill="url(#SVGID_3_)" d="M212.1,264.9h-9.4c-5.5-20.5-22.8-34.8-43.2-34.8s-37.7,14.3-43.2,34.8H107v21.2h7.9
	c3.4,22.2,22,37,44.6,37s41.2-14.7,44.6-37h8.1L212.1,264.9z"/>
<path fill="#FFFFFF" d="M209.4,266.2h-8.9c-5.3-18.6-21.7-33.7-41.1-33.7s-35.8,15.1-41.1,33.7h-8.7v19.3h7.5
	c3.2,20.3,21,33.7,42.3,33.7s39.1-13.4,42.3-33.7h7.7L209.4,266.2z"/>
<circle id="_x37_a3910d7-67a0-4ff3-88ee-27dedf2e16a4_2_" fill="#00C6A3" cx="159.2" cy="279.1" r="34.7"/>
<g id="_x33_4c43434-1451-4ab0-8354-03d0c452d8e6_2_">
	
		<linearGradient id="SVGID_4_" gradientUnits="userSpaceOnUse" x1="380.2074" y1="-60.0202" x2="380.2074" y2="-25.7986" gradientTransform="matrix(1 0 0 -1 -250.44 531.48)">
		<stop  offset="0" style="stop-color:#808080;stop-opacity:0.25"/>
		<stop  offset="0.54" style="stop-color:#808080;stop-opacity:0.12"/>
		<stop  offset="1" style="stop-color:#808080;stop-opacity:0.1"/>
	</linearGradient>
	<path fill="url(#SVGID_4_)" d="M156.2,581.8c0,11.6-11.9,9.6-26.5,9.6s-26.5,2-26.5-9.6c0-11.6,11.9-24.5,26.5-24.5
		S156.2,570.2,156.2,581.8z"/>
</g>
<g id="ad2d4070-7865-476e-a143-7337cc82fa1a_2_">
	
		<linearGradient id="SVGID_5_" gradientUnits="userSpaceOnUse" x1="439.3032" y1="-60.0202" x2="439.3032" y2="-25.7986" gradientTransform="matrix(1 0 0 -1 -250.44 531.48)">
		<stop  offset="0" style="stop-color:#808080;stop-opacity:0.25"/>
		<stop  offset="0.54" style="stop-color:#808080;stop-opacity:0.12"/>
		<stop  offset="1" style="stop-color:#808080;stop-opacity:0.1"/>
	</linearGradient>
	<path fill="url(#SVGID_5_)" d="M215.3,581.8c0,11.6-11.9,9.6-26.5,9.6s-26.5,2-26.5-9.6c0-11.6,11.9-24.5,26.5-24.5
		S215.3,570.2,215.3,581.8z"/>
</g>
<g id="_x37_c5e0dbc-1e9f-4751-9c9a-ae23d0c67b0d_2_">
	<path fill="#E0E0E0" d="M154.3,581.1c0,10.6-11,8.8-24.5,8.8s-24.5,1.8-24.5-8.8s11-22.4,24.5-22.4S154.3,570.5,154.3,581.1z"/>
</g>
<g id="_x32_96e55fe-bb0b-4dd7-ab7e-7a6e065d6a5f_2_">
	<path fill="#E0E0E0" d="M213.7,582.6c0,10.6-11,8.8-24.5,8.8s-24.5,1.8-24.5-8.8s11-22.4,24.5-22.4S213.7,572,213.7,582.6z"/>
</g>
<linearGradient id="SVGID_6_" gradientUnits="userSpaceOnUse" x1="515.9872" y1="-68.48" x2="515.9872" y2="333.4741" gradientTransform="matrix(1 0 0 -1 -250.44 531.48)">
	<stop  offset="0" style="stop-color:#808080;stop-opacity:0.25"/>
	<stop  offset="0.54" style="stop-color:#808080;stop-opacity:0.12"/>
	<stop  offset="1" style="stop-color:#808080;stop-opacity:0.1"/>
</linearGradient>
<path fill="url(#SVGID_6_)" d="M274.4,206.9c0-4.9-4-8.9-8.9-8.9c-4.9,0-8.9,4-8.9,8.9c0,2.3,0.9,4.5,2.5,6.1v383.8
	c0,1.8,1.4,3.2,3.2,3.2h5.7c1.8,0,3.2-1.4,3.2-3.2v-383C273.2,212.1,274.4,209.6,274.4,206.9z"/>
<path fill="#E0E0E0" d="M273.4,206.9c0-4.3-3.5-7.8-7.8-7.8c-4.3,0-7.8,3.5-7.8,7.8c0,2.7,1.4,5.3,3.7,6.7v381.4
	c0,1.8,1.4,3.2,3.2,3.2h2.3c1.8,0,3.2-1.4,3.2-3.2V213.2C272.1,211.7,273.3,209.4,273.4,206.9z"/>
<path id="_x37_5078eba-178e-4938-aaf4-b7f041ea2d55_2_" fill="#00C6A3" d="M260.6,351.6c-1.4,2.2-4.2,4-6.5,2.8
	c-1.9-0.9-2.5-3.3-2.7-5.4c-0.5-4.7-0.3-9.4,0.7-13.9c0.6-2.8,1.9-5.9,4.6-6.7c1.7-0.5,3.5,0.2,5,1.1s2.8,2.2,4.4,3.1
	c3,1.7,6.6,2,10,1.5c1.7-0.2,3.3-0.7,5-0.8c1.7-0.2,3.4,0.1,4.9,0.9c1.5,0.8,2.4,2.5,2.3,4.2c-0.2,1.7-2,3.1-3.6,2.6
	c1.4,0.8,2.7,1.9,3.6,3.3c0.9,1.4,1,3.2,0.3,4.7c-0.8,1.4-2.9,2.1-4.2,1.1c1.4,1.1,2.8,2.3,3.4,3.9c0.6,1.6,0.1,3.9-1.5,4.5
	c-0.7,0.2-1.4,0.3-2.1,0.4c-0.7,0.2-1.4,0.6-1.5,1.4c-0.1,0.8,0.8,1.4,1.3,2.1c1.1,1.5,0.5,3.7-0.8,5c-1.3,1.3-3.2,1.9-4.9,2.4
	c-2.6,0.8-5.3,1.6-7.9,2.3c-2.9,0.8-5.9,1.6-8.9,0.9c-5.2-1.1-8.6-6.3-7.4-11.5c0.5-2.4,1.9-4.4,3.8-5.9
	C259.2,354.7,259.5,352.9,260.6,351.6c1.5-1.7,2.2-3.9,2.2-6.1c0-3.3,1.3-6.5,0.5-9.7c-0.2,0-0.3,0-0.5,0.1
	C262.6,341.4,263.9,346.6,260.6,351.6z"/>
<g id="_x35_9ef6675-eba5-4924-a41d-ef258633805a_2_">
	
		<linearGradient id="SVGID_7_" gradientUnits="userSpaceOnUse" x1="641.46" y1="202.9553" x2="641.46" y2="346.2438" gradientTransform="matrix(1 0 0 -1 -250.44 531.48)">
		<stop  offset="0" style="stop-color:#808080;stop-opacity:0.25"/>
		<stop  offset="0.54" style="stop-color:#808080;stop-opacity:0.12"/>
		<stop  offset="1" style="stop-color:#808080;stop-opacity:0.1"/>
	</linearGradient>
	<path fill="url(#SVGID_7_)" d="M511.9,302.3c-80.6-90.8-161.2,90.8-241.8,0v-90.8c80.6,90.8,161.2-90.8,241.8,0
		C511.9,241.7,511.9,272,511.9,302.3z"/>
</g>
<g id="aee1670e-e8ab-4e69-9ed6-c33b4299fb78_2_">
	<path fill="#00C6A3" d="M509.3,298.9c-79.7-82.7-159.4,82.7-239.2,0v-82.7c79.7,82.7,159.4-82.7,239.2,0V298.9z"/>
</g>
<g id="d941d43a-1bd7-497d-a2ef-a3e2e2659e0c_2_">
	
		<linearGradient id="SVGID_8_" gradientUnits="userSpaceOnUse" x1="160.0735" y1="177.6616" x2="160.0735" y2="254.2688" gradientTransform="matrix(1 0 0 -1 0 608)">
		<stop  offset="0" style="stop-color:#808080;stop-opacity:0.25"/>
		<stop  offset="0.54" style="stop-color:#808080;stop-opacity:0.12"/>
		<stop  offset="1" style="stop-color:#808080;stop-opacity:0.1"/>
	</linearGradient>
	<path fill="url(#SVGID_8_)" d="M129,353.7h62.2c2.5,0,4.5,2,4.5,4.5v67.7c0,2.5-2,4.5-4.5,4.5H129c-2.5,0-4.5-2-4.5-4.5v-67.7
		C124.5,355.7,126.5,353.7,129,353.7z"/>
</g>
<path id="_x33_04248a4-1768-4f23-b9cb-e161915f6967_2_" fill="#00C6A3" d="M130.4,356.1h59c2.5,0,4.5,2,4.5,4.5v62.9
	c0,2.5-2,4.5-4.5,4.5h-59c-2.5,0-4.5-2-4.5-4.5v-62.9C126,358.1,128,356.1,130.4,356.1z"/>
<rect id="_x30_76458b3-f8b8-42f1-ba43-cb3b5508f8a9_2_" x="134.8" y="369.8" opacity="0.2" enable-background="new    " width="12.4" height="33.2"/>
<rect id="_x34_5128737-2df6-4b8c-aef6-04e2ae683cff_2_" x="161.8" y="381.9" opacity="0.2" enable-background="new    " width="16.4" height="11.2"/>
<rect id="_x32_11ca6c0-c299-4849-b228-cb0ba183ce3b_2_" x="173.7" y="364.2" opacity="0.2" enable-background="new    " width="9" height="8"/>
<circle id="_x34_ad46ce1-f00a-4f7a-9fe8-8c270b89c73d_2_" opacity="0.2" enable-background="new    " cx="178.8" cy="408.4" r="9.8"/>
<path id="ff63785f-5c7f-4def-be10-0bb3de2ca90f_2_" opacity="0.2" enable-background="new    " d="M163.5,252.1
	c10.9,0,21.1,5.1,27.7,13.8c-7.3-17.7-27.6-26.1-45.3-18.8c-17.7,7.3-26.1,27.6-18.8,45.3c1.1,2.7,2.6,5.3,4.3,7.6
	c-7.3-17.7,1.1-38,18.9-45.3C154.5,253,159,252.1,163.5,252.1z"/>
<g>
	<path id="ee614fe0-a70d-49e2-ad0f-cfa0665daf52_2_" fill="#B1F8D5" d="M225.9,108.5h-1c-0.2,0-0.7-0.8-0.7-1v-0.9
		c0-0.7-0.8-2.6-1.5-2.6s-1.5,1.9-1.5,2.6v0.9c0,0.3-0.2,1-0.5,1h-1c-0.7,0-2.6,0.5-2.6,1.2c0,0.7,1.9,1.2,2.6,1.2h1.1
		c0.4,0,0.4,0.4,0.4,0.6v1.2c0,0.7,0.8,2.6,1.5,2.6s1.5-1.9,1.5-2.6v-1.2c0-0.2,0.3-0.6,0.5-0.6h1.2c0.7,0,2.6-0.5,2.6-1.2
		S226.6,108.5,225.9,108.5z"/>
	<path id="acc1d592-062e-4dcd-a91f-f2c750c33fa0_2_" fill="#B1F8D5" d="M28.9,161.4H28c-0.2,0-0.6-0.7-0.6-0.9v-0.8
		c0-0.6-0.7-2.3-1.3-2.3s-1.3,1.7-1.3,2.3v0.8c0,0.3-0.2,0.9-0.5,0.9h-0.8c-0.6,0-2.3,0.5-2.3,1.1s1.7,1.1,2.3,1.1h1
		c0.3,0,0.3,0.3,0.3,0.5v1.1c0,0.6,0.7,2.3,1.3,2.3s1.3-1.7,1.3-2.3v-1.1c0-0.1,0.3-0.5,0.4-0.5h1c0.6,0,2.3-0.5,2.3-1.1
		S29.5,161.4,28.9,161.4z"/>
	<path id="e9c2f9d0-6216-43dd-aafe-1aef442d8198_1_" fill="#A0E4C6" d="M382.4,433.7h-0.9c-0.2,0-0.7-0.7-0.7-0.9V432
		c0-0.6-0.8-2.3-1.4-2.3s-1.4,1.7-1.4,2.3v0.8c0,0.3,0,0.9-0.3,0.9h-0.9c-0.6,0-2.3,0.4-2.3,1c0,0.6,1.7,1,2.3,1h1
		c0.3,0,0.1,0.5,0.1,0.6v1.1c0,0.6,0.8,2.3,1.4,2.3c0.6,0,1.4-1.7,1.4-2.3v-1.1c0-0.1,0.4-0.6,0.5-0.6h1c0.6,0,2.3-0.4,2.3-1
		C384.8,434.2,383,433.7,382.4,433.7z"/>
	<path id="_x31_3867d9c-cfe7-4b60-a8c5-3f71e99c3e02_2_" fill="#A0E4C6" d="M65.1,489.1h-0.9c-0.2,0-0.7-0.7-0.7-0.9v-0.8
		c0-0.6-0.8-2.3-1.4-2.3s-1.4,1.7-1.4,2.3v0.8c0,0.3,0,0.9-0.3,0.9h-0.9c-0.6,0-2.3,0.4-2.3,1s1.7,1,2.3,1h1c0.3,0,0.1,0.5,0.1,0.6
		v1.1c0,0.6,0.8,2.3,1.4,2.3s1.4-1.7,1.4-2.3v-1.1c0-0.1,0.4-0.6,0.5-0.6h1c0.6,0,2.3-0.4,2.3-1C67.5,489.6,65.8,489.1,65.1,489.1z"
		/>
	<circle id="cb349740-a417-4f38-a613-4379a7fe1f38_2_" fill="#DCFAEC" cx="414.6" cy="26.7" r="5.2"/>
	<circle id="be23bb10-1d2e-418b-af6d-2d6967ae971b_2_" fill="#7EBBA7" cx="57.5" cy="232.1" r="2.4"/>
	<circle id="_x39_efc09db-f667-434b-9915-b8177f90eb0b_4_" fill="#83D6AA" cx="265.4" cy="146" r="1.7"/>
	<circle id="_x39_efc09db-f667-434b-9915-b8177f90eb0b_1_" fill="#83D6AA" cx="80.3" cy="90.8" r="1.7"/>
	<circle id="_x31_b095ea7-cb8e-44fa-8db9-d77434a32042_2_" fill="#DCFAEC" cx="364.2" cy="185.6" r="4.9"/>
	<circle id="_x30_045b9d1-e494-49ec-9bae-4feb39b517d1_2_" fill="#DCFAEC" cx="310.1" cy="29" r="2.4"/>
	<circle id="de43a1f8-3987-4c14-8b8b-500a4e27f972_4_" fill="#FFFFFF" cx="248.9" cy="190.7" r="2.4"/>
	<circle id="de43a1f8-3987-4c14-8b8b-500a4e27f972_1_" fill="#FFFFFF" cx="175.5" cy="15.2" r="2.4"/>
	<circle id="b38b0c10-cbab-47c9-839f-7ab983c113e8_2_" fill="#FFFFFF" cx="95.9" cy="177" r="4.5"/>
	<circle id="e67cfae9-b598-4bd2-a0f9-80d7ff6e0a16_2_" fill="#7EBBA7" cx="158.2" cy="112" r="2.6"/>
	<circle id="_x31_d77e6b8-da9e-4299-ade6-ad650e1207bd_2_" fill="#83D6AA" cx="173.5" cy="217.6" r="1.7"/>
	<circle id="_x31_e33811a-9f5a-4f3e-be99-0f7e1dde7905_2_" fill="#7EBBA7" cx="175.4" cy="167.7" r="2.6"/>
	<path id="c488d0a9-6894-4c9c-aef4-d1faab1984cf_4_" fill="#B1F8D5" d="M317.9,108.6H317c-0.2,0-0.6-0.7-0.6-0.9v-0.8
		c0-0.6-0.7-2.4-1.4-2.4s-1.4,1.7-1.4,2.4v0.8c0,0.3-0.2,0.9-0.5,0.9h-0.9c-0.6,0-2.4,0.5-2.4,1.1c0,0.6,1.7,1.1,2.4,1.1h1
		c0.3,0,0.3,0.3,0.3,0.5v1.1c0,0.6,0.7,2.4,1.4,2.4s1.4-1.7,1.4-2.4v-1.1c0-0.1,0.3-0.5,0.5-0.5h1.1c0.6,0,2.4-0.5,2.4-1.1
		C320.3,109.1,318.6,108.6,317.9,108.6z"/>
	<path id="c488d0a9-6894-4c9c-aef4-d1faab1984cf_1_" fill="#B1F8D5" d="M8,271.3H7.1c-0.2,0-0.6-0.7-0.6-0.9v-0.8
		c0-0.6-0.7-2.4-1.4-2.4s-1.4,1.7-1.4,2.4v0.8c0,0.3-0.2,0.9-0.5,0.9H2.4c-0.6,0-2.4,0.5-2.4,1.1c0,0.6,1.7,1.1,2.4,1.1h1
		c0.3,0,0.3,0.3,0.3,0.5v1.1c0,0.6,0.7,2.4,1.4,2.4s1.4-1.7,1.4-2.4v-1.1c0-0.1,0.3-0.5,0.5-0.5H8c0.6,0,2.4-0.5,2.4-1.1
		C10.4,271.8,8.7,271.3,8,271.3z"/>
	<circle id="_x37_be5003c-4472-46d4-8fd5-cb0f750e9b8b_4_" fill="#7EBBA7" cx="478.8" cy="175.7" r="2.4"/>
	<circle id="_x37_be5003c-4472-46d4-8fd5-cb0f750e9b8b_1_" fill="#7EBBA7" cx="289.1" cy="88.1" r="2.4"/>
	<circle id="_x37_efbb3a7-f30e-4781-a185-7b9acf369ac6_2_" fill="#7EBBA7" cx="381.7" cy="100.9" r="2.4"/>
	<circle id="e77aff23-9dcb-4e42-8690-c4669d7d47b5_2_" fill="#DCFAEC" cx="476.4" cy="82.9" r="4.9"/>
	<circle id="f898004f-292d-4a15-988f-9ba9c1bfd06e_2_" fill="#DCFAEC" cx="424.6" cy="137.6" r="4.5"/>
</g>
</svg>
