<?xml version="1.0" encoding="utf-8"?>
<!-- Generator: Adobe Illustrator 21.1.0, SVG Export Plug-In . SVG Version: 6.00 Build 0)  -->
<svg version="1.0" id="Capa_1" xmlns="http://www.w3.org/2000/svg" xmlns:xlink="http://www.w3.org/1999/xlink" x="0px" y="0px"
	 viewBox="0 0 554 600" enable-background="new 0 0 554 600" xml:space="preserve">
<g opacity="0.7">
	
		<linearGradient id="SVGID_1_" gradientUnits="userSpaceOnUse" x1="399.7044" y1="4.9762" x2="399.7044" y2="515.1623" gradientTransform="matrix(1 0 0 -1 -137.41 543.05)">
		<stop  offset="0" style="stop-color:#808080;stop-opacity:0.25"/>
		<stop  offset="0.54" style="stop-color:#808080;stop-opacity:0.12"/>
		<stop  offset="1" style="stop-color:#808080;stop-opacity:0.1"/>
	</linearGradient>
	<path fill="url(#SVGID_1_)" d="M374,263.7c0.1-19.2-4.5-38.2-13.4-55.3c-4.2-8-8.1-13-11.1-16.1c-2.3-2.5-5.9-3.2-9-1.8
		c-1.2,0.4-2.3,1.1-3.2,2c-4,4.1-7.6,9.6-10.8,15.5c-9.3,17.5-14.2,37-14.1,56.8v11.9h-7.6V138.6c0-29-6.5-57.5-19.2-82.9
		c-6-12-11.5-19.5-15.7-24.1c-4-4.5-10.9-5-15.4-1c-0.4,0.3-0.7,0.6-1,1c-5.7,6.2-10.9,14.4-15.4,23.2C224.8,80.7,218,110,218,139.9
		v136.9h-6.6v-12.5c0.1-19.8-4.8-39.3-14.1-56.8c-3.2-5.8-6.8-11.3-10.8-15.5c-2.4-2.5-6.1-3.2-9.2-1.7l0.3,0.2
		c-1,0.4-1.8,1-2.6,1.8c-3,3.1-6.8,8-11.1,16.1c-8.9,17.1-13.5,36-13.4,55.3v206.6h23.5l-2.6,17v50.8h19.2v-50.8l-2.6-17h23.2V282.1
		h6.6v187.3h18.8l-2.7,17.8v50.8h19.2v-50.8l-2.7-17.8H276l-2.7,17.8v50.8h19.2v-50.8l-2.7-17.8h15V282.1h7.6v188.5h6.2v-0.3h20.4
		l-2.6,17v50.8h19.2v-50.8l-2.6-17H374V263.7z"/>
</g>
<polygon fill="#535461" points="194.6,477.4 176.4,477.4 179.7,455.3 191.4,455.3 "/>
<g opacity="0.1">
	<polygon points="178.7,464 192.3,464 191.4,457.9 179.7,457.9 	"/>
</g>
<polygon fill="#535461" points="350.8,477.4 332.6,477.4 335.8,455.3 347.5,455.3 "/>
<g opacity="0.1">
	<polygon points="334.9,464 348.4,464 347.5,457.9 335.8,457.9 	"/>
</g>
<polygon fill="#535461" points="253.8,477.4 235.6,477.4 238.9,455.3 250.6,455.3 "/>
<g opacity="0.1">
	<polygon points="238,464 251.5,464 250.6,457.9 238.9,457.9 	"/>
</g>
<polygon fill="#535461" points="290.9,477.4 272.7,477.4 276,455.3 287.7,455.3 "/>
<g opacity="0.1">
	<polygon points="275.1,464 288.6,464 287.7,457.9 276,457.9 	"/>
</g>
<rect x="194.6" y="272.4" fill="#535461" width="130.1" height="5.2"/>
<path fill="#E0E0E0" d="M344.9,190.2c-2.7-3-7.4-3.2-10.4-0.5c-0.2,0.2-0.3,0.3-0.5,0.5c-3.8,4-7.2,9.4-10.2,15.1
	c-8.9,17.1-13.4,36-13.4,55.3v200.3h57.6V259.7c0.1-18.7-4.3-37.2-12.7-53.9C351.3,198,347.7,193.1,344.9,190.2z"/>
<path fill="#E0E0E0" d="M179.7,190.2c2.7-3,7.4-3.2,10.4-0.5c0.2,0.2,0.3,0.3,0.5,0.5c3.8,4,7.2,9.4,10.2,15.1
	c8.9,17.1,13.4,36,13.4,55.3v200.3h-57.6V259.7c-0.1-18.7,4.3-37.2,12.7-53.9C173.3,198,176.9,193.1,179.7,190.2z"/>
<polygon fill="#535461" points="156.9,263.9 170.5,264 170.5,280.9 156.9,280.9 "/>
<polygon fill="#535461" points="200.5,263.9 214.1,264 214.1,280.9 200.5,280.9 "/>
<polygon fill="#535461" points="310.4,263.9 324.1,264 324.1,280.9 310.4,280.9 "/>
<polygon fill="#535461" points="354,263.9 367.7,264 367.7,280.9 354,280.9 "/>
<g opacity="0.1">
	<path d="M200.8,205c-3-5.7-6.4-11-10.2-15.1c-2.2-2.4-5.8-3.1-8.7-1.6c0.8,0.4,1.6,1,2.2,1.6c3.8,4,7.2,9.4,10.2,15.1
		c8.9,17.1,13.4,36,13.4,55.3v200.3h6.5V260.3C214.2,241,209.7,222,200.8,205z"/>
</g>
<g opacity="0.1">
	<path d="M329,205.5c3-5.7,6.4-11,10.2-15.1c0.7-0.8,1.6-1.4,2.5-1.8c-2.9-1.3-6.3-0.5-8.4,1.8c-3.8,4-7.2,9.4-10.2,15.1
		c-8.9,17.1-13.4,36-13.4,55.3v200.3h5.9V260.8C315.6,241.6,320.1,222.6,329,205.5z"/>
</g>
<linearGradient id="SVGID_2_" gradientUnits="userSpaceOnUse" x1="185.5096" y1="130.6165" x2="185.5096" y2="81.164" gradientTransform="matrix(1 0 0 -1 0 608)">
	<stop  offset="0" style="stop-color:#E0E0E0"/>
	<stop  offset="0.31" style="stop-color:#FCCC63"/>
	<stop  offset="0.77" style="stop-color:#F55F44"/>
</linearGradient>
<rect x="176.4" y="477.4" fill="url(#SVGID_2_)" width="18.2" height="49.5"/>
<linearGradient id="SVGID_3_" gradientUnits="userSpaceOnUse" x1="244.723" y1="130.6165" x2="244.723" y2="81.164" gradientTransform="matrix(1 0 0 -1 0 608)">
	<stop  offset="0" style="stop-color:#E0E0E0"/>
	<stop  offset="0.31" style="stop-color:#FCCC63"/>
	<stop  offset="0.77" style="stop-color:#F55F44"/>
</linearGradient>
<rect x="235.6" y="477.4" fill="url(#SVGID_3_)" width="18.2" height="49.5"/>
<linearGradient id="SVGID_4_" gradientUnits="userSpaceOnUse" x1="281.8163" y1="130.6165" x2="281.8163" y2="81.164" gradientTransform="matrix(1 0 0 -1 0 608)">
	<stop  offset="0" style="stop-color:#E0E0E0"/>
	<stop  offset="0.31" style="stop-color:#FCCC63"/>
	<stop  offset="0.77" style="stop-color:#F55F44"/>
</linearGradient>
<rect x="272.7" y="477.4" fill="url(#SVGID_4_)" width="18.2" height="49.5"/>
<linearGradient id="SVGID_5_" gradientUnits="userSpaceOnUse" x1="341.6853" y1="130.6165" x2="341.6853" y2="81.164" gradientTransform="matrix(1 0 0 -1 0 608)">
	<stop  offset="0" style="stop-color:#E0E0E0"/>
	<stop  offset="0.31" style="stop-color:#FCCC63"/>
	<stop  offset="0.77" style="stop-color:#F55F44"/>
</linearGradient>
<rect x="332.6" y="477.4" fill="url(#SVGID_5_)" width="18.2" height="49.5"/>
<path fill="#EEEEEE" d="M269.5,33.1c-3.6-4.3-10-4.8-14.3-1.2c-0.4,0.4-0.9,0.8-1.2,1.2c-5.4,6-10.3,14-14.6,22.6
	c-12.6,25.2-19.1,53.9-19.1,82.9V460h82.2V137.2c0-28.2-6.1-56.1-18.2-80.7C278.7,44.8,273.5,37.6,269.5,33.1z"/>
<path fill="#FF7E47" d="M248.2,68.8h25.5c4.8,0,8.7,3.9,8.7,8.7v2.3c0,4.8-3.9,8.7-8.7,8.7h-25.5c-4.8,0-8.7-3.9-8.7-8.7v-2.3
	C239.5,72.7,243.4,68.8,248.2,68.8z"/>
<g opacity="0.7">
	
		<linearGradient id="SVGID_6_" gradientUnits="userSpaceOnUse" x1="399.7075" y1="-55.0427" x2="399.7075" y2="92.8169" gradientTransform="matrix(1 0 0 -1 -137.41 543.05)">
		<stop  offset="0" style="stop-color:#808080;stop-opacity:0.25"/>
		<stop  offset="0.54" style="stop-color:#808080;stop-opacity:0.12"/>
		<stop  offset="1" style="stop-color:#808080;stop-opacity:0.1"/>
	</linearGradient>
	<path fill="url(#SVGID_6_)" d="M453,521.4L453,521.4c-5.9-35.7-39.7-59.9-75.4-53.9c-31.8,5.3-55,32.8-54.8,65.1c0,0.3,0,0.6,0,1
		l0,0c-2.4,0.4-4.8,0.9-7.2,1.5c-8.1-32.1-40.6-51.6-72.7-43.5c-17.7,4.4-32.4,16.7-39.9,33.3c-5.3-2-10.9-3.3-16.5-3.8l0,0
		c-0.9-5.1-2.4-10.1-4.5-14.9c-2.2-33-30.6-58-63.6-55.8c-29.4,1.9-53,24.9-55.7,54.3c-3.1,6.6-5.1,13.6-5.9,20.8l0,0
		c-28.4,11.8-43.2,43.2-34.3,72.7h479.8c9.6-31.7-8.4-65.1-40.1-74.7C459.2,522.5,456.1,521.9,453,521.4z"/>
</g>
<linearGradient id="SVGID_7_" gradientUnits="userSpaceOnUse" x1="127.7058" y1="154.8452" x2="127.7058" y2="39.8141" gradientTransform="matrix(1 0 0 -1 0 608)">
	<stop  offset="0" style="stop-color:#F2F2F2"/>
	<stop  offset="0.31" style="stop-color:#E6E6E6"/>
	<stop  offset="0.77" style="stop-color:#CCCCCC"/>
</linearGradient>
<circle fill="url(#SVGID_7_)" cx="127.7" cy="510.7" r="57.5"/>
<linearGradient id="SVGID_8_" gradientUnits="userSpaceOnUse" x1="127.4215" y1="138.7428" x2="127.4215" y2="12.7819" gradientTransform="matrix(1 0 0 -1 0 608)">
	<stop  offset="0" style="stop-color:#F2F2F2"/>
	<stop  offset="0.31" style="stop-color:#E6E6E6"/>
	<stop  offset="0.77" style="stop-color:#CCCCCC"/>
</linearGradient>
<circle fill="url(#SVGID_8_)" cx="127.4" cy="532.2" r="63"/>
<linearGradient id="SVGID_9_" gradientUnits="userSpaceOnUse" x1="383.3708" y1="138.7428" x2="383.3708" y2="12.7819" gradientTransform="matrix(1 0 0 -1 0 608)">
	<stop  offset="0" style="stop-color:#F2F2F2"/>
	<stop  offset="0.31" style="stop-color:#E6E6E6"/>
	<stop  offset="0.77" style="stop-color:#CCCCCC"/>
</linearGradient>
<circle fill="url(#SVGID_9_)" cx="383.4" cy="532.2" r="63"/>
<linearGradient id="SVGID_10_" gradientUnits="userSpaceOnUse" x1="380.204" y1="127.813" x2="380.204" y2="12.7818" gradientTransform="matrix(1 0 0 -1 0 608)">
	<stop  offset="0" style="stop-color:#F2F2F2"/>
	<stop  offset="0.31" style="stop-color:#E6E6E6"/>
	<stop  offset="0.77" style="stop-color:#CCCCCC"/>
</linearGradient>
<circle fill="url(#SVGID_10_)" cx="380.2" cy="537.7" r="57.5"/>
<linearGradient id="SVGID_11_" gradientUnits="userSpaceOnUse" x1="395.0745" y1="52.0012" x2="395.0745" y2="-52.176" gradientTransform="matrix(1 0 0 -1 -137.41 543.05)">
	<stop  offset="0" style="stop-color:#F2F2F2"/>
	<stop  offset="0.31" style="stop-color:#E6E6E6"/>
	<stop  offset="0.77" style="stop-color:#CCCCCC"/>
</linearGradient>
<path fill="url(#SVGID_11_)" d="M315.2,548.6c0,18.5-8.8,35.8-23.8,46.6H224c-25.8-18.6-31.5-54.6-12.9-80.3
	c18.6-25.8,54.6-31.5,80.3-12.9C306.3,512.8,315.2,530.1,315.2,548.6L315.2,548.6z"/>
<linearGradient id="SVGID_12_" gradientUnits="userSpaceOnUse" x1="322.0533" y1="21.9869" x2="322.0533" y2="-52.1681" gradientTransform="matrix(1 0 0 -1 -137.41 543.05)">
	<stop  offset="0" style="stop-color:#F2F2F2"/>
	<stop  offset="0.31" style="stop-color:#E6E6E6"/>
	<stop  offset="0.77" style="stop-color:#CCCCCC"/>
</linearGradient>
<path fill="url(#SVGID_12_)" d="M242.2,578.5c0,5.7-0.8,11.3-2.5,16.7H129.6c-9.2-30.4,8-62.5,38.4-71.7c5.3-1.6,10.8-2.4,16.3-2.5
	h0.4c1.6,0,3.2,0.1,4.8,0.2c5.4,0.4,10.8,1.7,15.9,3.6C227.5,533.4,242.2,554.8,242.2,578.5z"/>
<linearGradient id="SVGID_13_" gradientUnits="userSpaceOnUse" x1="466.4281" y1="10.5043" x2="466.4281" y2="-52.176" gradientTransform="matrix(1 0 0 -1 -137.41 543.05)">
	<stop  offset="0" style="stop-color:#F2F2F2"/>
	<stop  offset="0.31" style="stop-color:#E6E6E6"/>
	<stop  offset="0.77" style="stop-color:#CCCCCC"/>
</linearGradient>
<path fill="url(#SVGID_13_)" d="M386.5,590c0,1.7-0.1,3.4-0.2,5.1c0,0,0,0,0,0.1H271.7c-0.2-1.7-0.2-3.4-0.2-5.2
	c0-28.4,20.8-52.6,48.9-56.9c2.8-0.4,5.7-0.6,8.6-0.6c1.5,0,2.9,0.1,4.4,0.2c21,1.6,39.4,14.6,48.1,33.8c0.2,0.5,0.5,1.1,0.7,1.6
	C385,575,386.5,582.5,386.5,590z"/>
<linearGradient id="SVGID_14_" gradientUnits="userSpaceOnUse" x1="575.1497" y1="22.0185" x2="575.1497" y2="-52.1681" gradientTransform="matrix(1 0 0 -1 -137.41 543.05)">
	<stop  offset="0" style="stop-color:#F2F2F2"/>
	<stop  offset="0.31" style="stop-color:#E6E6E6"/>
	<stop  offset="0.77" style="stop-color:#CCCCCC"/>
</linearGradient>
<path fill="url(#SVGID_14_)" d="M495.2,578.5c0,5.7-0.8,11.3-2.5,16.7H382.7l0,0c-2.7-8.8-3.2-18.2-1.5-27.3c0.1-0.5,0.2-1,0.3-1.5
	c5.7-26.5,29.1-45.4,56.2-45.4c1.8,0,3.6,0.1,5.3,0.3c0.8,0.1,1.6,0.2,2.4,0.3C474,525.4,495.2,549.8,495.2,578.5z"/>
<linearGradient id="SVGID_15_" gradientUnits="userSpaceOnUse" x1="224.295" y1="22.0539" x2="224.295" y2="-52.176" gradientTransform="matrix(1 0 0 -1 -137.41 543.05)">
	<stop  offset="0" style="stop-color:#F2F2F2"/>
	<stop  offset="0.31" style="stop-color:#E6E6E6"/>
	<stop  offset="0.77" style="stop-color:#CCCCCC"/>
</linearGradient>
<path fill="url(#SVGID_15_)" d="M141.9,595.2c0.2-0.6,0.4-1.2,0.5-1.8c8.2-30.7-10-62.3-40.7-70.5c-9.9-2.6-20.3-2.6-30.2,0.1
	c-2.3,0.6-4.5,1.4-6.7,2.3c-27.3,11.4-41.5,41.5-33,69.8L141.9,595.2L141.9,595.2z"/>
<g opacity="0.7">
	
		<linearGradient id="SVGID_16_" gradientUnits="userSpaceOnUse" x1="473.3835" y1="131.0666" x2="473.3835" y2="152.168" gradientTransform="matrix(1 0 0 -1 0 608)">
		<stop  offset="0" style="stop-color:#808080;stop-opacity:0.25"/>
		<stop  offset="0.54" style="stop-color:#808080;stop-opacity:0.12"/>
		<stop  offset="1" style="stop-color:#808080;stop-opacity:0.1"/>
	</linearGradient>
	<circle fill="url(#SVGID_16_)" cx="473.4" cy="466.4" r="10.6"/>
</g>
<linearGradient id="SVGID_17_" gradientUnits="userSpaceOnUse" x1="473.3835" y1="151.3941" x2="473.3835" y2="131.8405" gradientTransform="matrix(1 0 0 -1 0 608)">
	<stop  offset="0" style="stop-color:#F2F2F2"/>
	<stop  offset="0.31" style="stop-color:#E6E6E6"/>
	<stop  offset="0.77" style="stop-color:#CCCCCC"/>
</linearGradient>
<circle fill="url(#SVGID_17_)" cx="473.4" cy="466.4" r="9.8"/>
<g opacity="0.7">
	
		<linearGradient id="SVGID_18_" gradientUnits="userSpaceOnUse" x1="521.6988" y1="28.3078" x2="521.6988" y2="51.3204" gradientTransform="matrix(1 0 0 -1 0 608)">
		<stop  offset="0" style="stop-color:#808080;stop-opacity:0.25"/>
		<stop  offset="0.54" style="stop-color:#808080;stop-opacity:0.12"/>
		<stop  offset="1" style="stop-color:#808080;stop-opacity:0.1"/>
	</linearGradient>
	<circle fill="url(#SVGID_18_)" cx="521.7" cy="568.2" r="11.5"/>
</g>
<linearGradient id="SVGID_19_" gradientUnits="userSpaceOnUse" x1="521.6988" y1="50.7439" x2="521.6988" y2="28.8843" gradientTransform="matrix(1 0 0 -1 0 608)">
	<stop  offset="0" style="stop-color:#F2F2F2"/>
	<stop  offset="0.31" style="stop-color:#E0E0E0"/>
	<stop  offset="0.77" style="stop-color:#B3B3B3"/>
</linearGradient>
<circle fill="url(#SVGID_19_)" cx="521.7" cy="568.2" r="10.9"/>
<g opacity="0.7">
	
		<linearGradient id="SVGID_20_" gradientUnits="userSpaceOnUse" x1="29.3536" y1="92.7413" x2="29.3536" y2="118.0283" gradientTransform="matrix(1 0 0 -1 0 608)">
		<stop  offset="0" style="stop-color:#808080;stop-opacity:0.25"/>
		<stop  offset="0.54" style="stop-color:#808080;stop-opacity:0.12"/>
		<stop  offset="1" style="stop-color:#808080;stop-opacity:0.1"/>
	</linearGradient>
	<circle fill="url(#SVGID_20_)" cx="29.4" cy="502.6" r="12.6"/>
</g>
<linearGradient id="SVGID_21_" gradientUnits="userSpaceOnUse" x1="29.3536" y1="117.4596" x2="29.3536" y2="93.3099" gradientTransform="matrix(1 0 0 -1 0 608)">
	<stop  offset="0" style="stop-color:#F2F2F2"/>
	<stop  offset="0.31" style="stop-color:#E6E6E6"/>
	<stop  offset="0.77" style="stop-color:#CCCCCC"/>
</linearGradient>
<circle fill="url(#SVGID_21_)" cx="29.4" cy="502.6" r="12.1"/>
<g opacity="0.4">
	
		<linearGradient id="SVGID_22_" gradientUnits="userSpaceOnUse" x1="620.4278" y1="459.675" x2="620.4278" y2="529.05" gradientTransform="matrix(1 0 0 -1 -137.41 543.05)">
		<stop  offset="0" style="stop-color:#808080;stop-opacity:0.25"/>
		<stop  offset="0.54" style="stop-color:#808080;stop-opacity:0.12"/>
		<stop  offset="1" style="stop-color:#808080;stop-opacity:0.1"/>
	</linearGradient>
	<path fill="url(#SVGID_22_)" d="M510.7,27.8L510.7,27.8c-2.8-3.7-6.3-6.8-10.3-9.1l0,0c-16.6-9.5-37.8-3.8-47.4,12.8
		s-3.8,37.8,12.8,47.4c5.2,3,11.2,4.6,17.2,4.6c0.7,0,1.5,0,2.2-0.1c19.1-1.2,33.6-17.7,32.4-36.8C517.2,39.7,514.8,33.2,510.7,27.8
		L510.7,27.8z"/>
</g>
<path opacity="0.2" fill="#FF7E47" enable-background="new    " d="M515.8,48.7c0,17.3-13.4,31.6-30.7,32.7c-0.7,0-1.4,0.1-2.1,0.1
	c-18.1,0-32.8-14.7-32.8-32.8c0-18.1,14.7-32.8,32.8-32.8c5.7,0,11.4,1.5,16.4,4.4l0,0c3.8,2.2,7.1,5.1,9.8,8.6l0,0
	C513.5,34.6,515.8,41.5,515.8,48.7z"/>
<path opacity="5.000000e-02" fill="#F55F44" enable-background="new    " d="M474.9,27.9c-1.7,0.7-3.3,1.6-4.9,2.6
	c-1,0.6-1.9,1.4-2.6,2.4c-0.7,1-0.7,2.3-0.1,3.3c0.8,1.1,2.4,1.3,3.7,1.3c2.5,0.5,5-0.3,6.7-2.2l2.8-2.6c1-0.9,2.1-2.1,1.6-3.4
	c-0.3-1-1.4-1.4-2.4-1.6c-2.4-0.5-4.9,0-7.1,1.2"/>
<circle opacity="5.000000e-02" fill="#F55F44" enable-background="new    " cx="463.1" cy="61.6" r="1.7"/>
<circle opacity="5.000000e-02" fill="#F55F44" enable-background="new    " cx="498.2" cy="50.7" r="6.3"/>
<path opacity="5.000000e-02" fill="#F55F44" enable-background="new    " d="M509.2,28.9L509.2,28.9c-0.1,4.8-4,8.6-8.8,8.5
	c-4.8-0.1-8.6-4-8.5-8.8c0.1-4.3,3.3-7.9,7.5-8.4l0,0C503.2,22.4,506.5,25.4,509.2,28.9z"/>
<path opacity="5.000000e-02" fill="#F55F44" enable-background="new    " d="M509.8,67.5c-5.7,8.1-14.8,13.2-24.7,13.8
	c0-0.5-0.1-0.9-0.1-1.4c0-8.6,7-15.5,15.5-15.5C503.9,64.5,507.1,65.5,509.8,67.5L509.8,67.5z"/>
<circle opacity="0.25" fill="#535461" enable-background="new    " cx="483.2" cy="262.2" r="4"/>
<circle opacity="0.25" fill="#535461" enable-background="new    " cx="140.4" cy="200.1" r="4"/>
<circle opacity="0.25" fill="#535461" enable-background="new    " cx="127.1" cy="107.5" r="4"/>
<circle opacity="0.25" fill="#535461" enable-background="new    " cx="13.2" cy="291" r="4"/>
<polygon opacity="0.25" fill="#535461" enable-background="new    " points="387.4,102.4 383.8,102.4 383.8,98.8 382.4,98.8 
	382.4,102.4 378.8,102.4 378.8,103.9 382.4,103.9 382.4,107.5 383.8,107.5 383.8,103.9 387.4,103.9 "/>
<polygon opacity="0.25" fill="#535461" enable-background="new    " points="543.8,275.6 540.3,275.6 540.3,272 538.8,272 
	538.8,275.6 535.2,275.6 535.2,277 538.8,277 538.8,280.6 540.3,280.6 540.3,277 543.8,277 "/>
<polygon opacity="0.25" fill="#535461" enable-background="new    " points="412.7,394.6 409.1,394.6 409.1,391 407.7,391 
	407.7,394.6 404.1,394.6 404.1,396.1 407.7,396.1 407.7,399.7 409.1,399.7 409.1,396.1 412.7,396.1 "/>
<polygon opacity="0.25" fill="#535461" enable-background="new    " points="45.7,149 42.2,149 42.2,145.4 40.7,145.4 40.7,149 
	37.1,149 37.1,150.5 40.7,150.5 40.7,154.1 42.2,154.1 42.2,150.5 45.7,150.5 "/>
<polygon opacity="0.25" fill="#535461" enable-background="new    " points="95.2,342.3 91.6,342.3 91.6,338.7 90.2,338.7 
	90.2,342.3 86.6,342.3 86.6,343.7 90.2,343.7 90.2,347.3 91.6,347.3 91.6,343.7 95.2,343.7 "/>
<linearGradient id="SVGID_23_" gradientUnits="userSpaceOnUse" x1="521.6988" y1="50.7439" x2="521.6988" y2="28.8843" gradientTransform="matrix(1 0 0 -1 0 608)">
	<stop  offset="0" style="stop-color:#F2F2F2"/>
	<stop  offset="0.31" style="stop-color:#E6E6E6"/>
	<stop  offset="0.77" style="stop-color:#CCCCCC"/>
</linearGradient>
<circle fill="url(#SVGID_23_)" cx="521.7" cy="568.2" r="10.9"/>
<g opacity="0.4">
	
		<linearGradient id="SVGID_24_" gradientUnits="userSpaceOnUse" x1="248.9414" y1="251.5673" x2="248.9414" y2="284.612" gradientTransform="matrix(1 0 0 -1 -137.41 543.05)">
		<stop  offset="0" style="stop-color:#808080;stop-opacity:0.25"/>
		<stop  offset="0.54" style="stop-color:#808080;stop-opacity:0.12"/>
		<stop  offset="1" style="stop-color:#808080;stop-opacity:0.1"/>
	</linearGradient>
	<path fill="url(#SVGID_24_)" d="M124.7,265L124.7,265c-1.3-1.8-3-3.2-4.9-4.4l0,0c-7.9-4.6-18-1.9-22.6,6c-4.6,7.9-1.9,18,6,22.6
		c2.5,1.5,5.4,2.3,8.4,2.2c0.3,0,0.7,0,1,0c9.1-0.6,16-8.4,15.4-17.5C127.8,270.7,126.7,267.6,124.7,265L124.7,265z"/>
</g>
<path opacity="0.2" fill="#FF7E47" enable-background="new    " d="M127.2,275c0,8.2-6.4,15.1-14.6,15.6c-0.3,0-0.7,0-1,0
	c-8.6,0-15.6-7-15.6-15.6c0-8.6,7-15.6,15.6-15.6c2.7,0,5.4,0.7,7.8,2.1l0,0c1.8,1.1,3.4,2.4,4.7,4.1l0,0
	C126.1,268.3,127.2,271.6,127.2,275z"/>
<path opacity="0.1" fill="#F55F44" enable-background="new    " d="M107.7,265.1c-0.8,0.3-1.6,0.8-2.4,1.2c-0.5,0.3-0.9,0.7-1.2,1.1
	c-0.3,0.5-0.3,1.1,0,1.6c0.5,0.5,1.1,0.7,1.8,0.6c1.2,0.2,2.4-0.2,3.2-1.1l1.3-1.2c0.5-0.4,1-1,0.8-1.6c-0.2-0.4-0.6-0.7-1.1-0.8
	c-1.2-0.2-2.3,0-3.4,0.6"/>
<circle opacity="0.1" fill="#F55F44" enable-background="new    " cx="102.1" cy="281.2" r="0.8"/>
<circle opacity="0.1" fill="#F55F44" enable-background="new    " cx="118.8" cy="275.9" r="3"/>
<path opacity="0.1" fill="#F55F44" enable-background="new    " d="M124,265.6L124,265.6c0,2.3-1.9,4.1-4.2,4.1
	c-2.3,0-4.1-1.9-4.1-4.2c0-2,1.5-3.7,3.6-4l0,0C121.2,262.5,122.8,264,124,265.6z"/>
<path opacity="0.1" fill="#F55F44" enable-background="new    " d="M124.3,284c-2.7,3.9-7.1,6.3-11.8,6.6c0-0.2,0-0.4,0-0.7
	c0-4.1,3.3-7.4,7.4-7.4C121.5,282.5,123.1,283,124.3,284L124.3,284z"/>
<g opacity="0.1">
	<rect x="220.8" y="149.5" width="81.3" height="3.2"/>
</g>
</svg>
