<?xml version="1.0" encoding="utf-8"?>
<!-- Generator: Adobe Illustrator 21.1.0, SVG Export Plug-In . SVG Version: 6.00 Build 0)  -->
<svg version="1.0" id="Capa_1" xmlns="http://www.w3.org/2000/svg" xmlns:xlink="http://www.w3.org/1999/xlink" x="0px" y="0px"
	 viewBox="0 0 554 600" enable-background="new 0 0 554 600" xml:space="preserve">
<g>
	<g opacity="0.8">
		
			<linearGradient id="SVGID_1_" gradientUnits="userSpaceOnUse" x1="304.8727" y1="324.7627" x2="304.8727" y2="473.6344" gradientTransform="matrix(1 0 0 -1 0 608)">
			<stop  offset="0" style="stop-color:#808080;stop-opacity:0.25"/>
			<stop  offset="0.54" style="stop-color:#808080;stop-opacity:0.12"/>
			<stop  offset="1" style="stop-color:#808080;stop-opacity:0.1"/>
		</linearGradient>
		<ellipse fill="url(#SVGID_1_)" cx="304.9" cy="208.8" rx="96.1" ry="74.4"/>
	</g>
	<ellipse fill="#FCB72D" cx="304.9" cy="208.8" rx="94" ry="72.8"/>
	<path opacity="0.1" fill="#FFFFFF" enable-background="new    " d="M226.1,216.9c0-40.2,42.1-72.8,94-72.8
		c16.1-0.1,32.1,3.2,46.8,9.7c-16.5-11.2-38.1-17.9-61.8-17.9c-51.9,0-94,32.6-94,72.8c0,27,19,50.6,47.1,63.1
		C238.6,258.4,226.1,238.8,226.1,216.9z"/>
	<polygon opacity="0.61" fill="#FFE4AE" enable-background="new    " points="304.9,238.1 409,418.5 513.2,598.9 304.9,598.9 
		96.6,598.9 200.7,418.5 	"/>
	<g opacity="0.3">
		
			<linearGradient id="SVGID_2_" gradientUnits="userSpaceOnUse" x1="184.2503" y1="-456.5241" x2="184.2503" y2="-334.8508" gradientTransform="matrix(0.9478 0.319 0.319 -0.9478 249.3229 43.2173)">
			<stop  offset="0" style="stop-color:#808080;stop-opacity:0.25"/>
			<stop  offset="0.54" style="stop-color:#808080;stop-opacity:0.12"/>
			<stop  offset="1" style="stop-color:#808080;stop-opacity:0.1"/>
		</linearGradient>
		<path fill="url(#SVGID_2_)" d="M329.6,493.5l8.1-24c5.7-17.2-0.5-36-15.2-46.5l0.1,0c-3.2-2.2-6.7-4-10.4-5.2l0,0l-0.1,0l-0.1,0
			l0,0c-3.6-1.2-7.3-1.9-11.1-2.1c-1.3-0.1-2.7-0.1-4,0c-2.3,0.1-4.6,0.4-6.9,1c-0.6,0.1-1.3,0.3-1.9,0.5c-0.6,0.2-1.3,0.4-1.9,0.6
			c-1.2,0.4-2.5,0.9-3.7,1.4c-0.6,0.3-1.2,0.5-1.8,0.8c-1.8,0.9-3.5,1.9-5.1,3c-0.5,0.4-1.1,0.8-1.6,1.2
			c-6.5,4.9-11.3,11.7-13.9,19.4l-12.7,37.8c-2,5.9-2.6,12.2-1.8,18.4c0.1,1,0.3,1.9,0.5,2.8s0.4,1.9,0.7,2.8
			c0.2,0.6,0.4,1.2,0.6,1.8c0.3,0.9,0.6,1.8,1,2.7c0.2,0.6,0.5,1.2,0.8,1.7c0.5,1.2,1.1,2.3,1.8,3.4c0.6,1.1,1.3,2.2,2.1,3.2
			c0.6,0.8,1.1,1.5,1.7,2.3c0.8,1,1.7,1.9,2.6,2.8c3.9,3.9,8.6,7,13.8,9.1l0,0l0,0l0.2,0.1c0.3-0.5,0.6-1,0.9-1.4
			c2-2.7,5.4-4.6,8.7-3.9c0.2,0.1,0.5,0.1,0.7,0.2c1.7,0.6,3.3,1.6,4.9,2.1c1.2,0.5,2.5,0.5,3.7,0c3.2-1.7,2-7.1,4.7-9.4
			c0.1-0.1,0.3-0.2,0.4-0.3l-0.1-0.2c2.1-1.3,5-0.4,7.5,0.4c2.6,0.9,6,1.5,7.9-0.6c1.2-1.5,1.1-3.7,2.3-5.2c1.4-1.8,3.9-2,6.2-1.7
			c1.2,0.2,8.4,8.5,14,5.8C323.9,510.4,328.9,495.6,329.6,493.5z"/>
	</g>
	<path fill="#FFFFFF" d="M272.9,528.9c1.9-2.6,5.2-4.5,8.4-3.7s6.1,3.7,8.9,2.2c3.1-1.6,1.9-6.8,4.6-9.1c2.1-1.8,5.2-0.9,7.7,0
		c2.6,0.9,5.8,1.5,7.6-0.6c1.2-1.4,1.1-3.6,2.2-5c1.3-1.7,3.8-1.9,5.9-1.6c1.1,0.2,8.1,8.2,13.5,5.6c-8.8-7.5-3.9-21.7-3.3-23.8
		l7.8-23.2c6.9-20.7-4.2-43-24.8-50l0,0c-20.7-6.9-43,4.2-50,24.8L249.1,481c-6.6,19.9,3.4,41.5,22.9,49.3
		C272.2,529.8,272.5,529.3,272.9,528.9z"/>
	
		<ellipse transform="matrix(0.319 -0.9478 0.9478 0.319 -222.1662 572.6833)" opacity="0.2" enable-background="new    " cx="287.4" cy="440.9" rx="4.3" ry="4.3"/>
	
		<ellipse transform="matrix(0.319 -0.9478 0.9478 0.319 -213.3687 601.2725)" opacity="0.2" enable-background="new    " cx="311.7" cy="449.1" rx="4.3" ry="4.3"/>
	
		<ellipse transform="matrix(0.319 -0.9478 0.9478 0.319 -236.8254 592.8425)" fill="#E0E0E0" cx="294.1" cy="461.2" rx="6.4" ry="4.3"/>
	
		<ellipse transform="matrix(0.319 -0.9478 0.9478 0.319 -157.3017 664.8501)" fill="#FFFFFF" cx="384" cy="441.9" rx="6.4" ry="6.4"/>
	
		<ellipse transform="matrix(0.319 -0.9478 0.9478 0.319 -133.9336 677.2149)" fill="#FFFFFF" cx="404.3" cy="431.8" rx="3.2" ry="3.2"/>
	<g opacity="0.8">
		
			<linearGradient id="SVGID_3_" gradientUnits="userSpaceOnUse" x1="304.8727" y1="309.8113" x2="304.8727" y2="322.624" gradientTransform="matrix(1 0 0 -1 0 608)">
			<stop  offset="0" style="stop-color:#808080;stop-opacity:0.25"/>
			<stop  offset="0.54" style="stop-color:#808080;stop-opacity:0.12"/>
			<stop  offset="1" style="stop-color:#808080;stop-opacity:0.1"/>
		</linearGradient>
		<rect x="240.8" y="285.4" fill="url(#SVGID_3_)" width="128.1" height="12.8"/>
	</g>
	<rect x="240.8" y="283.2" fill="#E0E0E0" width="128.1" height="12.8"/>
	<path opacity="0.1" enable-background="new    " d="M395.1,187.2c1.2,4.7,1.8,9.5,1.8,14.4c0,40.2-42.1,72.8-94,72.8
		c-42.5,0-78.3-21.8-90-51.7c8.6,33.3,46.6,58.4,92.1,58.4c51.9,0,94-32.6,94-72.8C399.1,201.1,397.7,193.9,395.1,187.2z"/>
	<g opacity="0.8">
		
			<linearGradient id="SVGID_4_" gradientUnits="userSpaceOnUse" x1="304.8727" y1="316.6801" x2="304.8727" y2="418.2504" gradientTransform="matrix(1 0 0 -1 0 608)">
			<stop  offset="0" style="stop-color:#808080;stop-opacity:0.25"/>
			<stop  offset="0.54" style="stop-color:#808080;stop-opacity:0.12"/>
			<stop  offset="1" style="stop-color:#808080;stop-opacity:0.1"/>
		</linearGradient>
		<ellipse fill="url(#SVGID_4_)" cx="304.9" cy="240.5" rx="194.3" ry="50.8"/>
	</g>
	<path fill="#FFFFFF" d="M304.9,191.4c-103.8,0-187.9,22-187.9,49.1h375.8C492.8,213.4,408.6,191.4,304.9,191.4z"/>
	<path fill="#FFFFFF" d="M304.9,289.6c103.8,0,187.9-22,187.9-49.1H117C117,267.7,201.1,289.6,304.9,289.6z"/>
	<path opacity="5.000000e-02" enable-background="new    " d="M304.9,289.6c103.8,0,187.9-22,187.9-49.1H117
		C117,267.7,201.1,289.6,304.9,289.6z"/>
	<path opacity="5.000000e-02" enable-background="new    " d="M226.5,227.7h156.8c6.2,0,11.3,5.1,11.3,11.3v3
		c0,6.2-5.1,11.3-11.3,11.3H226.5c-6.2,0-11.3-5.1-11.3-11.3v-3C215.2,232.8,220.2,227.7,226.5,227.7z"/>
	<path opacity="0.5" fill="#4D8AF0" enable-background="new    " d="M109.3,159.9c-1.1-0.5-1.7-1.7-1.3-2.9c0-0.1,0-0.2,0.1-0.3l0,0
		c0-0.7-0.5-1.2-1.1-1.3c-0.4,0-0.8,0.2-1,0.5l0,0c-0.1,0.1-0.1,0.2-0.1,0.2c-0.5,1.1-1.7,1.7-2.9,1.3c-0.1,0-0.2,0-0.3-0.1l0,0
		c-0.7,0-1.2,0.5-1.3,1.1c0,0.4,0.2,0.8,0.5,1l0,0c0.1,0.1,0.2,0.1,0.2,0.1c1.1,0.5,1.7,1.7,1.3,2.9c0,0.1,0,0.2-0.1,0.3l0,0
		c0,0.7,0.5,1.2,1.1,1.3c0.4,0,0.8-0.2,1-0.5l0,0c0.1-0.1,0.1-0.2,0.1-0.2c0.5-1.1,1.7-1.7,2.9-1.3c0.1,0,0.2,0,0.3,0.1l0,0
		c0.7,0,1.2-0.5,1.3-1.1c0-0.4-0.2-0.8-0.5-1l0,0C109.5,160,109.4,160,109.3,159.9z"/>
	<path opacity="0.5" fill="#4D8AF0" enable-background="new    " d="M443.2,360.7c-1.1-0.5-1.7-1.7-1.3-2.9c0-0.1,0-0.2,0.1-0.3l0,0
		c0-0.7-0.5-1.2-1.1-1.3c-0.4,0-0.8,0.2-1,0.5l0,0c-0.1,0.1-0.1,0.2-0.1,0.2c-0.5,1.1-1.7,1.7-2.9,1.3c-0.1,0-0.2,0-0.3-0.1l0,0
		c-0.7,0-1.2,0.5-1.3,1.1c0,0.4,0.2,0.8,0.5,1l0,0c0.1,0.1,0.2,0.1,0.2,0.1c1.1,0.5,1.7,1.7,1.3,2.9c0,0.1,0,0.2-0.1,0.3l0,0
		c0,0.7,0.5,1.2,1.1,1.3c0.4,0,0.8-0.2,1-0.5l0,0c0.1-0.1,0.1-0.2,0.1-0.2c0.5-1.1,1.7-1.7,2.9-1.3c0.1,0,0.2,0,0.3,0.1l0,0
		c0.7,0,1.2-0.5,1.3-1.1c0-0.4-0.2-0.8-0.5-1l0,0C443.4,360.8,443.3,360.7,443.2,360.7z"/>
	<path opacity="0.5" fill="#4D8AF0" enable-background="new    " d="M74.5,453.8c-1.1-0.5-1.7-1.7-1.3-2.9c0-0.1,0-0.2,0.1-0.3l0,0
		c0-0.7-0.5-1.2-1.1-1.3c-0.4,0-0.8,0.2-1,0.5l0,0c-0.1,0.1-0.1,0.2-0.1,0.2c-0.5,1.1-1.7,1.7-2.9,1.3c-0.1,0-0.2,0-0.3-0.1l0,0
		c-0.7,0-1.2,0.5-1.3,1.1c0,0.4,0.2,0.8,0.5,1l0,0c0.1,0.1,0.2,0.1,0.2,0.1c1.1,0.5,1.7,1.7,1.3,2.9c0,0.1,0,0.2-0.1,0.3l0,0
		c0,0.7,0.5,1.2,1.1,1.3c0.4,0,0.8-0.2,1-0.5l0,0c0.1-0.1,0.1-0.2,0.1-0.2c0.5-1.1,1.7-1.7,2.9-1.3c0.1,0,0.2,0,0.3,0.1l0,0
		c0.7,0,1.2-0.5,1.3-1.1c0-0.4-0.2-0.8-0.5-1l0,0C74.7,453.9,74.6,453.9,74.5,453.8z"/>
	<path opacity="0.5" fill="#4D8AF0" enable-background="new    " d="M38.4,236.7c-1.1-0.5-1.7-1.7-1.3-2.9c0-0.1,0-0.2,0.1-0.3l0,0
		c0-0.7-0.5-1.2-1.1-1.3c-0.4,0-0.8,0.2-1,0.5l0,0c-0.1,0.1-0.1,0.2-0.1,0.2c-0.5,1.1-1.7,1.7-2.9,1.3c-0.1,0-0.2,0-0.3-0.1l0,0
		c-0.7,0-1.2,0.5-1.3,1.1c0,0.4,0.2,0.8,0.5,1l0,0c0.1,0.1,0.2,0.1,0.2,0.1c1.1,0.5,1.7,1.7,1.3,2.9c0,0.1,0,0.2-0.1,0.3l0,0
		c0,0.7,0.5,1.2,1.1,1.3c0.4,0,0.8-0.2,1-0.5l0,0c0.1-0.1,0.1-0.2,0.1-0.2c0.5-1.1,1.7-1.7,2.9-1.3c0.1,0,0.2,0,0.3,0.1l0,0
		c0.7,0,1.2-0.5,1.3-1.1c0-0.4-0.2-0.8-0.5-1l0,0C38.6,236.8,38.5,236.7,38.4,236.7z"/>
	<path opacity="0.5" fill="#4D8AF0" enable-background="new    " d="M436.7,126.5c-1.1-0.5-1.7-1.7-1.3-2.9c0-0.1,0-0.2,0.1-0.3l0,0
		c0-0.7-0.5-1.2-1.1-1.3c-0.4,0-0.8,0.2-1,0.5l0,0c-0.1,0.1-0.1,0.2-0.1,0.2c-0.5,1.1-1.7,1.7-2.9,1.3c-0.1,0-0.2,0-0.3-0.1l0,0
		c-0.7-0.1-1.3,0.3-1.4,0.9c-0.1,0.5,0.1,1,0.6,1.3l0,0c0.1,0.1,0.2,0.1,0.2,0.1c1.1,0.5,1.7,1.7,1.3,2.9c0,0.1,0,0.2-0.1,0.3l0,0
		c-0.1,0.7,0.4,1.3,1.1,1.3c0.5,0,0.9-0.2,1.1-0.5l0,0c0.1-0.1,0.1-0.2,0.1-0.2c0.5-1.1,1.7-1.7,2.9-1.3c0.1,0,0.2,0,0.3,0.1l0,0
		c0.7,0,1.2-0.5,1.3-1.1c0-0.4-0.2-0.8-0.5-1l0,0C436.8,126.6,436.8,126.5,436.7,126.5z"/>
	<g opacity="0.5">
		<rect x="93.6" y="291.2" fill="#47E6B1" width="2" height="11.2"/>
		<rect x="89" y="295.8" fill="#47E6B1" width="11.2" height="2"/>
	</g>
	<g opacity="0.5">
		<rect x="146.6" y="12.2" fill="#47E6B1" width="2" height="11.2"/>
		<rect x="142" y="16.8" fill="#47E6B1" width="11.2" height="2"/>
	</g>
	<g opacity="0.5">
		<rect x="500.4" y="421.7" fill="#47E6B1" width="2" height="11.2"/>
		<rect x="495.8" y="426.3" fill="#47E6B1" width="11.2" height="2"/>
	</g>
	<circle opacity="0.5" fill="#F55F44" enable-background="new    " cx="499.8" cy="82.7" r="3.9"/>
	<circle opacity="0.5" fill="#F55F44" enable-background="new    " cx="25.4" cy="130.4" r="3.9"/>
	<circle opacity="0.5" fill="#F55F44" enable-background="new    " cx="143.5" cy="356.8" r="3.9"/>
	<path opacity="0.5" fill="#4D8AF0" enable-background="new    " d="M271.3,70.9c-1.1-0.5-1.7-1.7-1.3-2.9c0-0.1,0-0.2,0.1-0.3l0,0
		c0-0.7-0.5-1.2-1.1-1.3c-0.4,0-0.8,0.2-1,0.5l0,0c-0.1,0.1-0.1,0.2-0.1,0.2c-0.5,1.1-1.7,1.7-2.9,1.3c-0.1,0-0.2,0-0.3-0.1l0,0
		c-0.7,0-1.2,0.5-1.3,1.1c0,0.4,0.2,0.8,0.5,1l0,0c0.1,0.1,0.2,0.1,0.2,0.1c1.1,0.5,1.7,1.7,1.3,2.9c0,0.1,0,0.2-0.1,0.3l0,0
		c0,0.7,0.5,1.2,1.1,1.3c0.4,0,0.8-0.2,1-0.5l0,0c0.1-0.1,0.1-0.2,0.1-0.2c0.5-1.1,1.7-1.7,2.9-1.3c0.1,0,0.2,0,0.3,0.1l0,0
		c0.7,0,1.2-0.5,1.3-1.1c0-0.4-0.2-0.8-0.5-1l0,0C271.5,71,271.4,71,271.3,70.9z"/>
	<path opacity="0.5" fill="#4D8AF0" enable-background="new    " d="M484.2,194.7c-1.1-0.5-1.7-1.7-1.3-2.9c0-0.1,0-0.2,0.1-0.3l0,0
		c0-0.7-0.5-1.2-1.1-1.3c-0.4,0-0.8,0.2-1,0.5l0,0c-0.1,0.1-0.1,0.2-0.1,0.2c-0.5,1.1-1.7,1.7-2.9,1.3c-0.1,0-0.2,0-0.3-0.1l0,0
		c-0.7,0-1.2,0.5-1.3,1.1c0,0.4,0.2,0.8,0.5,1l0,0c0.1,0.1,0.2,0.1,0.2,0.1c1.1,0.5,1.7,1.7,1.3,2.9c0,0.1,0,0.2-0.1,0.3l0,0
		c0,0.7,0.5,1.2,1.1,1.3c0.4,0,0.8-0.2,1-0.5l0,0c0.1-0.1,0.1-0.2,0.1-0.2c0.5-1.1,1.7-1.7,2.9-1.3c0.1,0,0.2,0,0.3,0.1l0,0
		c0.7,0,1.2-0.5,1.3-1.1c0-0.4-0.2-0.8-0.5-1l0,0C484.4,194.8,484.3,194.7,484.2,194.7z"/>
	<path opacity="0.5" fill="#4D8AF0" enable-background="new    " d="M79.4,70.7c-1.1-0.5-1.7-1.7-1.3-2.9c0-0.1,0-0.2,0.1-0.3l0,0
		c0-0.7-0.5-1.2-1.1-1.3c-0.4,0-0.8,0.2-1,0.5l0,0c-0.1,0.1-0.1,0.2-0.1,0.2c-0.5,1.1-1.7,1.7-2.9,1.3c-0.1,0-0.2,0-0.3-0.1l0,0
		c-0.7,0-1.2,0.5-1.3,1.1c0,0.4,0.2,0.8,0.5,1l0,0c0.1,0.1,0.2,0.1,0.2,0.1c1.1,0.5,1.7,1.7,1.3,2.9c0,0.1,0,0.2-0.1,0.3l0,0
		c0,0.7,0.5,1.2,1.1,1.3c0.4,0,0.8-0.2,1-0.5l0,0c0.1-0.1,0.1-0.2,0.1-0.2c0.5-1.1,1.7-1.7,2.9-1.3c0.1,0,0.2,0,0.3,0.1l0,0
		c0.7,0,1.2-0.5,1.3-1.1c0-0.4-0.2-0.8-0.5-1l0,0C79.6,70.8,79.5,70.7,79.4,70.7z"/>
	<circle opacity="0.5" fill="#F55F44" enable-background="new    " cx="354.8" cy="50.7" r="3.9"/>
	<circle opacity="0.5" fill="#F55F44" enable-background="new    " cx="171.8" cy="90.7" r="3.9"/>
</g>
</svg>
