<?xml version="1.0" encoding="utf-8"?>
<!-- Generator: Adobe Illustrator 21.1.0, SVG Export Plug-In . SVG Version: 6.00 Build 0)  -->
<svg version="1.0" id="Capa_1" xmlns="http://www.w3.org/2000/svg" xmlns:xlink="http://www.w3.org/1999/xlink" x="0px" y="0px"
	 viewBox="0 0 396 600" enable-background="new 0 0 396 600" xml:space="preserve">
<linearGradient id="SVGID_1_" gradientUnits="userSpaceOnUse" x1="184.7259" y1="172.9545" x2="184.7259" y2="424.3943" gradientTransform="matrix(1 0 0 -1 0 602)">
	<stop  offset="0" style="stop-color:#808080;stop-opacity:0.25"/>
	<stop  offset="0.54" style="stop-color:#808080;stop-opacity:0.12"/>
	<stop  offset="1" style="stop-color:#808080;stop-opacity:0.1"/>
</linearGradient>
<circle fill="url(#SVGID_1_)" cx="184.7" cy="303.3" r="125.7"/>
<circle fill="#FFFFFF" cx="184.7" cy="303.3" r="122.6"/>
<circle opacity="5.000000e-02" enable-background="new    " cx="145.1" cy="232.4" r="15.2"/>
<circle opacity="5.000000e-02" enable-background="new    " cx="191.7" cy="395.6" r="15.2"/>
<circle opacity="5.000000e-02" enable-background="new    " cx="206.9" cy="285.9" r="31.1"/>
<linearGradient id="SVGID_2_" gradientUnits="userSpaceOnUse" x1="373.335" y1="185.3046" x2="373.335" y2="246.0573" gradientTransform="matrix(1 0 0 -1 -185 525.13)">
	<stop  offset="0" style="stop-color:#808080;stop-opacity:0.25"/>
	<stop  offset="0.54" style="stop-color:#808080;stop-opacity:0.12"/>
	<stop  offset="1" style="stop-color:#808080;stop-opacity:0.1"/>
</linearGradient>
<path fill="url(#SVGID_2_)" d="M234,339.8c-15.4,0-31.9-0.7-48.6-2.2c-37.3-3.3-72.1-9.9-97.9-18.5c-26-8.7-39.9-18.6-39.1-27.7
	c0.4-4.6,4.5-8.8,12.1-12.3l0.4,0.9c-7.3,3.4-11.2,7.2-11.6,11.5c-0.4,4.3,2.9,8.9,9.6,13.5c6.6,4.6,16.3,9,28.9,13.2
	c25.8,8.6,60.5,15.2,97.7,18.5s72.6,2.9,99.4-1.1c13-1.9,23.4-4.6,30.7-7.9c7.5-3.4,11.5-7.3,11.8-11.6c0.4-4.9-4-10.3-12.9-15.6
	l0.5-0.8c9.3,5.6,13.8,11.1,13.3,16.5c-0.8,9.2-16.2,16.4-43.4,20.4C270.2,338.7,252.8,339.8,234,339.8z"/>
<path opacity="0.5" fill="none" stroke="#BDBDBD" stroke-width="3" stroke-miterlimit="10" enable-background="new    " d="
	M314.8,299c8.8,5.3,13.6,10.7,13.1,16.1c-1.6,18.4-65.4,27.9-142.5,21.1c-77.1-6.8-138.3-27.3-136.6-45.7c0.4-4.6,4.6-8.5,11.9-11.9
	"/>
<linearGradient id="SVGID_3_" gradientUnits="userSpaceOnUse" x1="313.4421" y1="167.243" x2="313.4421" y2="284.2856" gradientTransform="matrix(1 0 0 -1 -185 525.13)">
	<stop  offset="0" style="stop-color:#808080;stop-opacity:0.25"/>
	<stop  offset="0.54" style="stop-color:#808080;stop-opacity:0.12"/>
	<stop  offset="1" style="stop-color:#808080;stop-opacity:0.1"/>
</linearGradient>
<path fill="url(#SVGID_3_)" d="M200.5,357.9c-11.1-4.8-22.5-10.1-33.7-15.9c-33.4-17.1-63.1-36.2-83.8-53.9
	c-20.9-17.8-30-32.2-25.9-40.4c2.1-4.1,7.5-6.5,15.9-6.9l0,1c-8,0.4-13.1,2.5-15.1,6.3c-2,3.8-0.7,9.3,3.8,16.1
	c4.4,6.7,11.8,14.5,21.8,23.1c20.6,17.7,50.4,36.8,83.6,53.8c11.2,5.7,22.6,11.1,33.7,15.9L200.5,357.9z"/>
<path fill="none" stroke="#BDBDBD" stroke-width="3" stroke-miterlimit="10" d="M202.2,357.4c-10.9-4.7-22.2-10-33.7-15.9
	c-68.9-35.2-117.9-77.2-109.5-93.6c2.1-4.1,7.5-6.2,15.5-6.6"/>
<linearGradient id="SVGID_4_" gradientUnits="userSpaceOnUse" x1="463.5686" y1="139.7429" x2="463.5686" y2="168.7307" gradientTransform="matrix(1 0 0 -1 -185 525.13)">
	<stop  offset="0" style="stop-color:#808080;stop-opacity:0.25"/>
	<stop  offset="0.54" style="stop-color:#808080;stop-opacity:0.12"/>
	<stop  offset="1" style="stop-color:#808080;stop-opacity:0.1"/>
</linearGradient>
<path fill="url(#SVGID_4_)" d="M290.7,385.4c-10.1,0-24.3-3.3-43.6-9.9l0.3-0.9c36.7,12.6,54.8,13.2,60.7,1.7
	c2.2-4.4,0.2-11.1-6.1-19.3l0.8-0.6c6.5,8.7,8.6,15.5,6.2,20.3C306,382.5,300.2,385.4,290.7,385.4z"/>
<path fill="none" stroke="#BDBDBD" stroke-width="3" stroke-miterlimit="10" d="M302.5,355.7c6.2,8.2,8.5,15.1,6.1,19.8
	c-5.6,10.9-22,12-61.3-1.5"/>
<g>
	<rect x="72.7" y="417" fill="#90F4D0" width="1.3" height="7.1"/>
	<rect x="69.7" y="420" fill="#90F4D0" width="7.1" height="1.3"/>
</g>
<g>
	<rect x="326.8" y="161.3" fill="#90F4D0" width="1.3" height="7.1"/>
	<rect x="323.8" y="164.2" fill="#90F4D0" width="7.1" height="1.3"/>
</g>
<g>
	<rect x="353.8" y="354.6" fill="#90F4D0" width="1.3" height="7.1"/>
	<rect x="350.9" y="357.5" fill="#90F4D0" width="7.1" height="1.3"/>
</g>
<g>
	<rect x="76.8" y="178.4" fill="#90F4D0" width="1.3" height="7.1"/>
	<rect x="73.9" y="181.3" fill="#90F4D0" width="7.1" height="1.3"/>
</g>
<path opacity="0.5" fill="#4D8AF0" enable-background="new    " d="M113.8,441.3c-0.7-0.3-1.1-1.1-0.9-1.8c0-0.1,0-0.1,0-0.2l0,0
	c0-0.4-0.3-0.8-0.8-0.8c-0.2,0-0.5,0.1-0.6,0.3l0,0c0,0-0.1,0.1-0.1,0.2c-0.3,0.7-1.1,1.1-1.8,0.9c-0.1,0-0.1,0-0.2,0l0,0
	c-0.4,0-0.8,0.3-0.8,0.8c0,0.2,0.1,0.5,0.3,0.6l0,0c0,0,0.1,0.1,0.2,0.1c0.7,0.3,1.1,1.1,0.9,1.8c0,0.1,0,0.1,0,0.2l0,0
	c0,0.4,0.3,0.8,0.8,0.8c0.2,0,0.5-0.1,0.6-0.3l0,0c0,0,0.1-0.1,0.1-0.2c0.3-0.7,1.1-1.1,1.8-0.9c0.1,0,0.1,0,0.2,0l0,0
	c0.4,0,0.8-0.3,0.8-0.8c0-0.2-0.1-0.5-0.3-0.6l0,0C113.9,441.4,113.8,441.4,113.8,441.3z"/>
<path opacity="0.5" fill="#4D8AF0" enable-background="new    " d="M190,446.3c-0.7-0.3-1.1-1.1-0.9-1.8c0-0.1,0-0.1,0-0.2l0,0
	c0-0.4-0.3-0.8-0.8-0.8c-0.2,0-0.5,0.1-0.6,0.3l0,0c0,0-0.1,0.1-0.1,0.2c-0.3,0.7-1.1,1.1-1.8,0.9c-0.1,0-0.1,0-0.2,0l0,0
	c-0.4,0-0.8,0.3-0.8,0.8c0,0.2,0.1,0.5,0.3,0.6l0,0c0,0,0.1,0.1,0.2,0.1c0.7,0.3,1.1,1.1,0.9,1.8c0,0.1,0,0.1,0,0.2l0,0
	c0,0.4,0.3,0.8,0.8,0.8c0.2,0,0.5-0.1,0.6-0.3l0,0c0,0,0.1-0.1,0.1-0.2c0.3-0.7,1.1-1.1,1.8-0.9c0.1,0,0.1,0,0.2,0l0,0
	c0.4,0,0.8-0.3,0.8-0.8c0-0.2-0.1-0.5-0.3-0.6l0,0C190.1,446.4,190.1,446.4,190,446.3z"/>
<path opacity="0.5" fill="#4D8AF0" enable-background="new    " d="M340.8,245.1c-0.7-0.3-1.1-1.1-0.9-1.8c0-0.1,0-0.1,0-0.2l0,0
	c0-0.4-0.3-0.8-0.8-0.8c-0.2,0-0.5,0.1-0.6,0.3l0,0c0,0-0.1,0.1-0.1,0.2c-0.3,0.7-1.1,1.1-1.8,0.9c-0.1,0-0.1,0-0.2,0l0,0
	c-0.4,0-0.8,0.3-0.8,0.8c0,0.2,0.1,0.5,0.3,0.6l0,0c0,0,0.1,0.1,0.2,0.1c0.7,0.3,1.1,1.1,0.9,1.8c0,0.1,0,0.1,0,0.2l0,0
	c0,0.4,0.3,0.8,0.8,0.8c0.2,0,0.5-0.1,0.6-0.3l0,0c0,0,0.1-0.1,0.1-0.2c0.3-0.7,1.1-1.1,1.8-0.9c0.1,0,0.1,0,0.2,0l0,0
	c0.4,0,0.8-0.3,0.8-0.8c0-0.2-0.1-0.5-0.3-0.6l0,0C340.9,245.2,340.8,245.2,340.8,245.1z"/>
<path opacity="0.5" fill="#4D8AF0" enable-background="new    " d="M43.9,355.4c-0.7-0.3-1.1-1.1-0.9-1.8c0-0.1,0-0.1,0-0.2l0,0
	c0-0.4-0.3-0.8-0.8-0.8c-0.2,0-0.5,0.1-0.6,0.3l0,0c0,0-0.1,0.1-0.1,0.2c-0.3,0.7-1.1,1.1-1.8,0.9c-0.1,0-0.1,0-0.2,0l0,0
	c-0.4,0-0.8,0.3-0.8,0.8c0,0.2,0.1,0.5,0.3,0.6l0,0c0,0,0.1,0.1,0.2,0.1c0.7,0.3,1.1,1.1,0.9,1.8c0,0.1,0,0.1,0,0.2l0,0
	c0,0.4,0.3,0.8,0.8,0.8c0.2,0,0.5-0.1,0.6-0.3l0,0c0,0,0.1-0.1,0.1-0.2c0.3-0.7,1.1-1.1,1.8-0.9c0.1,0,0.1,0,0.2,0l0,0
	c0.4,0,0.8-0.3,0.8-0.8c0-0.2-0.1-0.5-0.3-0.6l0,0C44,355.4,43.9,355.4,43.9,355.4z"/>
<circle fill="#F4A89F" enable-background="new    " cx="38.5" cy="252.5" r="2.5"/>
<circle opacity="0.5" fill="#4D8AF0" enable-background="new    " cx="242.2" cy="168.8" r="2.5"/>
<circle opacity="0.5" fill="#47E6B1" enable-background="new    " cx="104.7" cy="162.5" r="2.5"/>
<circle fill="#F4A89F" enable-background="new    " cx="289.7" cy="428.7" r="2.5"/>
<linearGradient id="SVGID_5_" gradientUnits="userSpaceOnUse" x1="703.2912" y1="184.0943" x2="703.2912" y2="232.1695" gradientTransform="matrix(0.461 -0.8874 -0.8874 -0.461 85.63 1086.7065)">
	<stop  offset="0" style="stop-color:#808080;stop-opacity:0.25"/>
	<stop  offset="0.54" style="stop-color:#808080;stop-opacity:0.12"/>
	<stop  offset="1" style="stop-color:#808080;stop-opacity:0.1"/>
</linearGradient>
<path fill="url(#SVGID_5_)" d="M230.8,350.1c-1.5-0.8-3.2-0.2-4,1.3l-0.3,0.6l-0.7-0.4l-6.2-3.2l-1.3-0.7c-0.2-0.1-0.4-0.1-0.6-0.1
	c-5.9-1.9-10.7,1.8-13.7,7.7l0,0c-1.1,2-1.8,4.2-2.1,6.5l-0.1,0c-0.3,2.4,0,4.7,1.2,6.6l0.1-0.2c0.6,1,1.4,1.8,2.3,2.5
	c0.1,0.3,0.2,0.5,0.5,0.6l8.5,4.4l-0.6,1.2c-0.8,1.5-0.2,3.2,1.3,4l0,0l2-3.9l10.4,5.4l0.7-1.3l0.7-1.3l1-2h0l-2.4,4.6l5,2.6
	c6.1,3.2,10.7-0.9,14.1-7.2v0l0.2-0.4l0,0l0,0v0l0,0l0,0l0.2-0.3l0,0c3.2-6.4,3.9-12.5-2.2-15.7l-5-2.6l-2.7,5.3h0l1.4-2.7l0.6-1.2
	l0.7-1.4l-10.4-5.4L230.8,350.1L230.8,350.1z M214.9,372.6L214.9,372.6L214.9,372.6L214.9,372.6z"/>
<rect x="216.9" y="362.3" transform="matrix(0.461 -0.8874 0.8874 0.461 -203.516 400.593)" fill="#4F617D" width="22.3" height="11.1"/>
<path fill="#FF656A" d="M245.4,376.8L245.4,376.8c-3.2,6.1-7.6,10.2-13.5,7.1l-4.7-2.4l11.6-22.2l4.7,2.4
	C249.3,364.7,248.5,370.6,245.4,376.8z"/>
<path fill="#4A5C81" d="M241.7,382c1.5-1.6,2.7-3.3,3.6-5.2c0.9-1.6,1.5-3.4,2-5.2l-2-1l-5.4,10.5L241.7,382z"/>
<path fill="#4A5C81" d="M229.4,377.2l6.7-13l0,0l0.4,0.2c0.8,0.4,1.1,1.4,0.7,2.3l0,0l-5.2,10c-0.4,0.8-1.4,1.1-2.3,0.7l0,0
	L229.4,377.2L229.4,377.2z"/>
<path fill="#FF6469" d="M207.2,368.6l0.3-0.5l0,0l21,10.9l0,0l-1.3,2.5l0,0l-19-9.9C207.1,371.1,206.6,369.7,207.2,368.6
	C207.2,368.6,207.2,368.6,207.2,368.6z"/>
<path fill="#FF6469" d="M216.5,350.8l0.3-0.5c0.6-1.1,1.9-1.5,3-1l0,0l19,9.9l0,0l-1.3,2.5l0,0L216.5,350.8L216.5,350.8z"/>
<path fill="#FF656A" d="M225.8,352.5l-11.5,22.2l-5.8-3c-6.4-3.3-6.4-9.6-3.2-15.8l0,0c3.2-6.1,8.3-9.8,14.8-6.5L225.8,352.5z"/>
<path fill="#FFF6D5" d="M204.3,368.2l2.3-4.5l-3.4-1.8C202.8,364.2,203.1,366.4,204.3,368.2z"/>
<path fill="#FFF6D5" d="M214.6,348.2l-2.3,4.5l-3.4-1.8C210.6,349.3,212.5,348.3,214.6,348.2z"/>
<path fill="#FF6469" d="M214,376.8l0.9-1.7l0,0l2.5,1.3l0,0l-1.9,3.7l0,0l-0.5-0.2C213.9,379.2,213.5,377.9,214,376.8
	C214,376.8,214,376.8,214,376.8z"/>
<path fill="#FF6469" d="M230.5,351l-1.9,3.7l0,0l-2.5-1.3l0,0l0.9-1.7c0.6-1.1,1.9-1.5,3-1l0,0L230.5,351L230.5,351z"/>
<path fill="#53678B" d="M227.3,355.6l-9.7,18.6l-8.4-7.5c-1.3-1.2-1.7-3.2-0.9-4.8l3.6-6.9c0.8-1.6,2.6-2.4,4.4-2L227.3,355.6z"/>
<path fill="#658BC8" d="M218,373.5c-4.1-2.1-5.5-7.6-3.1-12.2c2.4-4.6,7.6-6.6,11.7-4.5"/>
<polygon fill="#FF656A" points="227.9,356 218.3,374.5 216.5,373.5 217.8,372.5 225.7,357.3 226.1,355 "/>
<polygon opacity="5.000000e-02" enable-background="new    " points="227.9,356 218.3,374.5 216.5,373.5 217.8,372.5 225.7,357.3 
	226.1,355 "/>
<rect x="222.3" y="365.7" transform="matrix(0.461 -0.8874 0.8874 0.461 -205.207 396.3997)" fill="#53678B" width="2.8" height="2.8"/>
<ellipse transform="matrix(0.461 -0.8874 0.8874 0.461 -205.1051 397.8448)" fill="#53678B" cx="224.9" cy="367.8" rx="2.8" ry="0.7"/>
<path opacity="5.000000e-02" enable-background="new    " d="M231.7,380.7c2.2,1.5,5.1,0.9,6.6-1.3c0.1-0.1,0.1-0.2,0.2-0.3"/>
<path opacity="5.000000e-02" enable-background="new    " d="M240.4,364c2.5,0.9,3.7,3.7,2.8,6.1c0,0.1-0.1,0.2-0.1,0.3"/>
<path opacity="5.000000e-02" enable-background="new    " d="M210.4,364.1c0,0-0.5-5,4.5-8.6"/>
<path opacity="5.000000e-02" enable-background="new    " d="M212.7,365.3c0,0-0.5-5,4.5-8.6"/>
<ellipse transform="matrix(0.461 -0.8874 0.8874 0.461 -208.4724 390.8272)" fill="#4A77BE" cx="217.5" cy="367" rx="2.1" ry="2.1"/>
<ellipse transform="matrix(0.461 -0.8874 0.8874 0.461 -200.5931 389.5774)" fill="#4A77BE" cx="220.4" cy="359.9" rx="1.4" ry="1.4"/>
<path fill="#CDEFFF" d="M224.9,365.1l-0.1-0.4c-0.1-0.5,0.2-0.9,0.7-1l4.5-0.9c0.5-0.1,0.9,0.2,1,0.7c0,0,0,0,0,0l0.2,1.2l0,0
	l-5.3,1.1C225.4,365.8,225,365.5,224.9,365.1z"/>
<path opacity="5.000000e-02" enable-background="new    " d="M227.5,365.8l-0.4-2l0,0l2.4-0.5c0.9-0.2,1.8,0.4,2,1.3l0,0l0.1,0.4
	l0,0L227.5,365.8L227.5,365.8z"/>
<path fill="#CDEFFF" d="M223.8,374.5l1.7-3.2l0,0l3.8,2l0,0l-1.7,3.2c-0.4,0.8-1.5,1.2-2.3,0.7l0,0l-0.7-0.4
	C223.7,376.4,223.3,375.4,223.8,374.5C223.8,374.5,223.8,374.5,223.8,374.5z"/>
<path fill="#CDEFFF" d="M227.7,376.1l-0.7,1.5c-0.8,1.3-2.6,1.6-4.2,0.8l-1.8-0.9l1-1.9L227.7,376.1z"/>
<path fill="#CDEFFF" d="M217.6,374.7l0.2-0.4c0.2-0.4,0.7-0.6,1.2-0.4l3.1,1.6l0,0l-1,1.9l0,0l-3.1-1.6
	C217.6,375.7,217.4,375.2,217.6,374.7z"/>
<path opacity="5.000000e-02" enable-background="new    " d="M227.1,373.3c0.6,0.3,1.4,0.4,2.1,0.3l0.1-0.2l-3.7-1.9
	C225.8,372.3,226.3,372.9,227.1,373.3z"/>
<path fill="#CDEFFF" d="M233,366.1l-1.7,3.2l0,0l-3.8-2l0,0l1.7-3.2c0.4-0.8,1.5-1.2,2.3-0.7l0,0l0.7,0.4
	C233.1,364.2,233.4,365.2,233,366.1L233,366.1L233,366.1z"/>
<path opacity="5.000000e-02" enable-background="new    " d="M230.1,367.5c0.6,0.3,1.1,0.9,1.4,1.5l-0.1,0.2l-3.7-1.9
	C228.5,367,229.4,367.1,230.1,367.5z"/>
<ellipse transform="matrix(0.461 -0.8874 0.8874 0.461 -205.4004 402.4662)" fill="#CDEFFF" cx="228.6" cy="370.3" rx="3.2" ry="3.2"/>
<ellipse transform="matrix(0.461 -0.8874 0.8874 0.461 -205.5297 402.3495)" fill="#CDEFFF" cx="228.4" cy="370.4" rx="3.2" ry="3.2"/>
<path fill="#658BC8" d="M225.5,368.8c-0.5,1-0.5,2.3,0.1,3.2c1.8-0.1,3.2-1.6,3.1-3.4c0-0.6-0.2-1.1-0.5-1.6
	C227.1,367.2,226.1,367.8,225.5,368.8z"/>
</svg>
